<svg width="128" height="128" xmlns="http://www.w3.org/2000/svg">

 <g>
  <title>background</title>
  <rect fill="none" id="canvas_background" height="402" width="582" y="-1" x="-1"/>
 </g>
 <g>
  <title>Layer 1</title>
  <path id="svg_1" fill="#eb8307" d="m114.289,80.164c-1.805,-3.156 -3.891,-10.664 -5.328,-15.836c-4.063,-14.617 -10.352,-37.18 -29.266,-45.281c0.188,-0.992 0.305,-2.008 0.305,-3.047c0,-8.836 -7.164,-16 -16,-16s-16,7.164 -16,16c0,1.039 0.117,2.055 0.305,3.047c-18.914,8.102 -25.203,30.664 -29.266,45.281c-1.438,5.172 -3.523,12.68 -5.328,15.836c-7.75,1.109 -13.711,7.774 -13.711,15.836c0,8.836 7.164,16 16,16l32,0c0,8.836 7.164,16 16,16s16,-7.164 16,-16l32,0c8.836,0 16,-7.164 16,-16c0,-8.062 -5.961,-14.727 -13.711,-15.836zm-2.289,23.836l-48,0l-48,0c-4.414,0 -8,-3.586 -8,-8c0,-3.953 2.945,-7.359 6.844,-7.914c2.445,-0.352 4.586,-1.813 5.813,-3.953c2.125,-3.719 4.016,-10.195 6.094,-17.664c3.702,-13.328 9.296,-33.469 24.702,-40.071c3.453,-1.477 5.406,-5.148 4.711,-8.836c-0.109,-0.593 -0.164,-1.101 -0.164,-1.562c0,-4.414 3.586,-8 8,-8s8,3.586 8,8c0,0.461 -0.055,0.969 -0.164,1.563c-0.695,3.688 1.258,7.359 4.711,8.836c15.406,6.602 21,26.742 24.711,40.086c2.07,7.453 3.961,13.93 6.086,17.648c1.227,2.141 3.367,3.602 5.813,3.953c3.898,0.555 6.843,3.961 6.843,7.914c0,4.414 -3.586,8 -8,8z"/>
  <path id="svg_2" d="m56.727268,7.898992l-4.686867,11.818179l-15.191919,14.545454l-15.515151,39.434342l-7.111111,11.313131l-9.373737,8.727272l6.141414,14.545454l30.060605,-0.646465l68.52525,0l11.636363,-3.232323l1.939394,-10.666666l-6.464646,-8.080808l-4.525252,-7.434343l-15.515151,-39.111109l-8.727272,-12.282828l-10.343434,-5.818182l-4.20202,-13.575757l-6.787878,-3.878788l-9.858587,4.343436z" fill-opacity="null" stroke-opacity="null" stroke-width="null" stroke="null" fill="#eb8307"/>
 </g>
</svg>