<svg width="96" height="96" xmlns="http://www.w3.org/2000/svg">
 <title/>

 <g>
  <title>background</title>
  <rect fill="none" id="canvas_background" height="402" width="582" y="-1" x="-1"/>
 </g>
 <g>
  <title>Layer 1</title>
  <path stroke-width="0" fill="#eb8307" id="svg_1" d="m78,-0.0011l-60,0a5.9965,5.9965 0 0 0 -6,6l0,84a6.0015,6.0015 0 0 0 9.75,4.6875l26.25,-21.0059l26.25,21.0059a6.0015,6.0015 0 0 0 9.75,-4.6875l0,-84a5.9965,5.9965 0 0 0 -6,-6zm-6,77.5136l-20.25,-16.2011a6.0134,6.0134 0 0 0 -7.5,0l-20.25,16.2011l0,-65.5136l48,0l0,65.5136z"/>
  <path id="svg_3" d="m20.0176,8.61569l56.78256,-0.37845l0.24227,75.34653l-28.3458,-15.26312l-27.86126,18.41265l-0.81777,-78.11761z" stroke-opacity="null" stroke-width="0" stroke="#000" fill="#eb8307"/>
 </g>
</svg>