<svg width="96.00000000000001" height="96.00000000000001" xmlns="http://www.w3.org/2000/svg">

 <g>
  <title>background</title>
  <rect fill="none" id="canvas_background" height="402" width="582" y="-1" x="-1"/>
 </g>
 <g>
  <title>Layer 1</title>
  <path fill="#02aa00" id="svg_1" d="m48,4c-24.3,0 -44,19.699 -44,44s19.7,44 44,44s44,-19.699 44,-44s-19.7,-44 -44,-44zm0,80c-19.882,0 -36,-16.118 -36,-36s16.118,-36 36,-36s36,16.118 36,36s-16.118,36 -36,36z"/>
  <path fill="#02aa00" id="svg_2" d="m64.284,37.17c-1.562,-1.561 -4.095,-1.561 -5.657,0l-14.142,14.143l-5.657,-5.657c-1.562,-1.562 -4.094,-1.562 -5.657,0c-1.562,1.562 -1.562,4.095 0,5.658l8.484,8.483c1.562,1.562 4.096,1.562 5.658,0l16.97,-16.97c1.563,-1.562 1.565,-4.094 0.001,-5.657z"/>
 </g>
</svg>