<svg width="96" height="96" xmlns="http://www.w3.org/2000/svg">

 <g>
  <title>background</title>
  <rect fill="none" id="canvas_background" height="402" width="582" y="-1" x="-1"/>
 </g>
 <g>
  <title>Layer 1</title>
  <path fill="#ff0000" id="svg_1" d="m48,4c-24.3,0 -44,19.699 -44,44s19.7,44 44,44s44,-19.699 44,-44s-19.7,-44 -44,-44zm0,80c-19.882,0 -36,-16.118 -36,-36s16.118,-36 36,-36s36,16.118 36,36s-16.118,36 -36,36z"/>
  <path fill="#ff0000" id="svg_2" d="m53.657,48l8.485,-8.485c1.562,-1.562 1.562,-4.095 0,-5.656c-1.562,-1.562 -4.096,-1.562 -5.658,0l-8.484,8.484l-8.485,-8.484c-1.562,-1.562 -4.095,-1.562 -5.657,0c-1.562,1.562 -1.562,4.096 0,5.656l8.485,8.485l-8.485,8.485c-1.562,1.562 -1.562,4.095 0,5.656c1.562,1.562 4.095,1.562 5.657,0l8.485,-8.484l8.484,8.484c1.562,1.562 4.096,1.562 5.658,0c1.562,-1.562 1.562,-4.096 0,-5.656l-8.485,-8.485z"/>
 </g>
</svg>