<?xml version="1.0" encoding="utf-8"?>
<!-- Generator: Adobe Illustrator 16.0.0, SVG Export Plug-In . SVG Version: 6.00 Build 0)  -->
<!DOCTYPE svg PUBLIC "-//W3C//DTD SVG 1.1//EN" "http://www.w3.org/Graphics/SVG/1.1/DTD/svg11.dtd">
<svg version="1.1" id="Layer_1" xmlns="http://www.w3.org/2000/svg" xmlns:xlink="http://www.w3.org/1999/xlink" x="0px" y="0px"
	 width="512px" height="512px" viewBox="0 0 512 512" enable-background="new 0 0 512 512" xml:space="preserve">
<path id="dribbble_2_" d="M255.992,0C114.836,0,0.008,114.844,0.008,256s114.828,256,255.984,256s256-114.844,256-256
	S397.148,0,255.992,0z M157.57,39.469c1.953-0.875,3.938-1.75,5.922-2.578c58.469-24.797,126.469-24.812,185.062,0.016
	c27.203,11.5,51.812,27.844,73.109,48.531l4.359,4.25l-4.484,4.094c-18.281,16.719-37.859,32.188-58.203,45.938
	c-24.375,16.469-50.344,30.844-77.125,42.719l-4.453,1.953l-2.656-4.078c-33.047-50.562-74.297-94.656-122.609-131.047l-7.734-5.812
	L157.57,39.469z M21.711,215.062c3.062-17.672,8.172-35.031,15.188-51.609c11.984-28.344,29.125-53.766,50.969-75.594
	c12.219-12.219,25.734-23.109,40.156-32.328l3.25-2.078l3.156,2.234c22.812,16.219,44.375,34.469,64.141,54.188
	c22.594,22.594,43.109,47.469,61.016,73.938l4.078,6.062l-5.828,4.094c-23.938,8.859-48.531,15.875-73.062,20.906
	c-32.969,6.734-66.844,10.156-100.688,10.156c-18.891,0-38.188-1.125-57.375-3.312l-6.031-0.688L21.711,215.062z M78.414,414.219
	l-3.922-4.641c-15.562-18.328-28.219-38.859-37.594-61.016C24.508,319.25,18.211,288.109,18.211,256
	c0-3.594,0.094-7.172,0.25-10.703l0.266-6.141l6.094,0.719c19.547,2.219,39.484,3.344,59.266,3.344
	c64.031,0,126.531-11.562,185.781-34.344l4.547-1.75l2.453,4.188c10.781,18.438,20.469,37.75,28.766,57.344l5.578,13.734
	l-6.203,1.703C222.07,306.609,145.242,350.156,82.805,410L78.414,414.219z M344.773,472.875l-0.094,3.859l-3.594,1.391
	c-27.125,10.375-55.75,15.625-85.094,15.625c-32.094,0-63.219-6.266-92.531-18.656c-25-10.562-47.844-25.25-67.922-43.625
	l-4.516-4.125l4.422-4.234c20.578-19.703,42.891-37.734,66.359-53.578c26.781-18.094,55.312-33.578,84.844-46.062
	c21.219-8.984,43.312-16.562,65.688-22.484l5.188-1.391l1.719,5.125c6.312,18.953,11.531,38.359,15.469,57.672
	c6.75,32.906,10.156,66.797,10.156,100.703C344.867,466.344,344.836,469.625,344.773,472.875z M490.961,292.781
	c-2.938,19.094-8.281,37.844-15.859,55.781c-11.969,28.281-29.109,53.719-50.969,75.562c-15.672,15.672-33.359,29.047-52.578,39.719
	l-8.406,4.688l-0.094-9.641c-0.422-53.766-9.062-106.703-25.688-157.359l-2.016-6.125l6.328-1.281
	c47.094-9.516,96.781-12.156,144.141-7.906l6.078,0.531L490.961,292.781z M493.555,268.656l-6.094-0.562
	c-50.406-4.594-103.312-1.516-153.625,9.031l-4.75,1l-1.766-4.5c-9.203-23.359-20.234-46.281-32.75-68.094l-3.141-5.469l5.75-2.594
	c49.953-22.578,95.891-52.938,136.562-90.188l4.531-4.156l3.812,4.812c13.5,16.922,24.594,35.594,33.016,55.531
	c12.391,29.25,18.672,60.391,18.672,92.531c0,2.156-0.031,4.328-0.062,6.531L493.555,268.656z"/>
</svg>
