<svg width="64" height="64" xmlns="http://www.w3.org/2000/svg">

 <g>
  <title>background</title>
  <rect fill="none" id="canvas_background" height="402" width="582" y="-1" x="-1"/>
 </g>
 <g>
  <title>Layer 1</title>
  <path fill="#eb8307" id="svg_2" d="m55.736,13.636l-4.368,-4.362c-0.451,-0.451 -1.044,-0.677 -1.636,-0.677c-0.592,0 -1.184,0.225 -1.635,0.676l-3.494,3.484l7.639,7.626l3.494,-3.483c0.903,-0.902 0.903,-2.365 0,-3.264z"/>
  <polygon fill="#eb8307" id="svg_3" points="21.922,35.396 29.562,43.023 50.607,22.017 42.967,14.39  "/>
  <polygon fill="#eb8307" id="svg_4" points="20.273,37.028 18.642,46.28 27.913,44.654  "/>
  <path fill="#eb8307" id="svg_5" d="m41.393,50.403l-28.806,0l0,-28.806l20.329,0l5.01,-5l-27.106,0c-1.779,0 -3.234,1.455 -3.234,3.234l0,32.339c0,1.779 1.455,3.234 3.234,3.234l32.339,0c1.779,0 3.234,-1.455 3.234,-3.234l0,-23.121l-5,4.991l0,16.363z"/>
 </g>
</svg>