<?xml version="1.0" encoding="utf-8"?>
<!-- Generator: Adobe Illustrator 16.0.0, SVG Export Plug-In . SVG Version: 6.00 Build 0)  -->
<!DOCTYPE svg PUBLIC "-//W3C//DTD SVG 1.1//EN" "http://www.w3.org/Graphics/SVG/1.1/DTD/svg11.dtd">
<svg version="1.1" id="Layer_1" xmlns="http://www.w3.org/2000/svg" xmlns:xlink="http://www.w3.org/1999/xlink" x="0px" y="0px"
	 width="512px" height="512px" viewBox="0 0 512 512" enable-background="new 0 0 512 512" xml:space="preserve">
<path id="facebook_2_" d="M375.203,201.094c0-5.031-4.062-9.125-9.094-9.125h-65.219v-73.375c0-5.438,4.406-9.844,9.828-9.844
	h64.188c5.016,0,9.109-4.094,9.109-9.094V9.109c0-5.016-4.094-9.109-9.109-9.109c-0.797,0-95.203,0.344-95.203,0.344
	c-26.094,2.031-50.203,13.672-68.016,32.812c-17.891,19.25-27.75,44.344-27.75,70.625v88.188h-46.859
	c-5.031,0-9.094,4.094-9.094,9.125v90.5c0,5.016,4.062,9.094,9.094,9.094l46.859,0.031l0.016,202.188c0,5,4.094,9.094,9.094,9.094
	h98.734c5.016,0,9.109-4.094,9.109-9.094V289.844h55.188c4.438,0,8.219-3.188,8.969-7.562l10.031-79.625
	C375.172,202.062,375.203,201.578,375.203,201.094z M348.047,271.625h-65.344V493.75h-80.562V282.484h-55.969v-72.297h55.969
	V103.781c0-21.656,8.125-42.328,22.875-58.219c14.531-15.625,34.203-25.219,55.406-26.984l85.375-0.297v72.266h-55.078
	c-15.453,0-28.016,12.578-28.016,28.047v91.594h73.078L348.047,271.625z"/>
</svg>
