<?xml version="1.0" encoding="utf-8"?>
<!-- Generator: Adobe Illustrator 16.0.0, SVG Export Plug-In . SVG Version: 6.00 Build 0)  -->
<!DOCTYPE svg PUBLIC "-//W3C//DTD SVG 1.1//EN" "http://www.w3.org/Graphics/SVG/1.1/DTD/svg11.dtd">
<svg version="1.1" id="Layer_1" xmlns="http://www.w3.org/2000/svg" xmlns:xlink="http://www.w3.org/1999/xlink" x="0px" y="0px"
	 width="512px" height="512px" viewBox="0 0 512 512" enable-background="new 0 0 512 512" xml:space="preserve">
<g id="instagram_2_">
	<path d="M488.055,0H23.945C10.742,0,0.008,10.734,0.008,23.938v464.094C0.008,501.25,10.742,512,23.945,512h464.109
		c13.203,0,23.938-10.75,23.938-23.969V23.938C511.992,10.734,501.258,0,488.055,0z M493.773,493.75H18.211V197.5H135.68l-4.656,8.5
		c-11.516,20.906-17.594,44.656-17.594,68.656c0,78.625,63.953,142.594,142.562,142.594c78.625,0,142.594-63.969,142.594-142.594
		c0-24-6.094-47.719-17.594-68.656l-4.672-8.5h117.453V493.75z M168.055,186.719c23.5-23.469,54.719-36.406,87.938-36.406
		s64.453,12.938,87.953,36.406c23.484,23.5,36.422,54.734,36.422,87.938c0,33.25-12.938,64.469-36.422,87.969
		c-23.484,23.469-54.703,36.406-87.953,36.406c-33.219,0-64.453-12.938-87.938-36.438c-23.5-23.469-36.438-54.688-36.438-87.938
		C131.617,241.453,144.555,210.219,168.055,186.719z M493.773,179.297h-131.75l-1.703-1.828
		c-26.891-28.844-64.922-45.391-104.328-45.391c-39.391,0-77.406,16.547-104.312,45.391l-1.688,1.828H18.211V18.219h41.125v93.312
		c0,5.016,4.062,9.109,9.094,9.109s9.109-4.094,9.109-9.109V18.219h41.109v93.312c0,5.016,4.094,9.109,9.109,9.109
		s9.109-4.094,9.109-9.109V18.219h356.906V179.297z"/>
	<path d="M255.992,357.953c45.906,0,83.266-37.359,83.266-83.297c0-45.906-37.359-83.25-83.266-83.25s-83.25,37.344-83.25,83.25
		C172.742,320.594,210.086,357.953,255.992,357.953z M255.992,209.625c35.875,0,65.062,29.156,65.062,65.031
		s-29.188,65.062-65.062,65.062c-35.859,0-65.031-29.188-65.031-65.062S220.133,209.625,255.992,209.625z"/>
	<path d="M384.242,136.875h59.328c5.016,0,9.109-4.094,9.109-9.109V68.438c0-5.016-4.094-9.109-9.109-9.109h-59.328
		c-5.031,0-9.109,4.094-9.109,9.109v59.328C375.133,132.781,379.211,136.875,384.242,136.875z M393.336,77.531h41.125v41.125
		h-41.125V77.531z"/>
</g>
</svg>
