<svg width="64" height="64" xmlns="http://www.w3.org/2000/svg">

 <g>
  <title>background</title>
  <rect fill="none" id="canvas_background" height="402" width="582" y="-1" x="-1"/>
 </g>
 <g>
  <title>Layer 1</title>
  <circle id="svg_2" r="32" fill="#ff0000" cy="32" cx="32.116959"/>
  <path opacity="0.2" id="svg_5" fill="#231F20" d="m49.982,31.003c-0.094,-5.522 -4.574,-10.442 -10.107,-10.442c-3.2,0 -6.019,1.674 -7.875,4.131c-1.856,-2.457 -4.676,-4.131 -7.875,-4.131c-5.533,0 -10.012,4.921 -10.107,10.442l-0.018,0c0,0.034 0.007,0.065 0.007,0.099c0,0.025 -0.007,0.049 -0.007,0.076c0,0.155 0.038,0.272 0.045,0.421c0.495,14.071 17.813,19.84 17.813,19.84s17.572,-5.762 18.092,-19.818c0.009,-0.157 0.05,-0.281 0.05,-0.443c0,-0.027 -0.007,-0.052 -0.007,-0.076c0,-0.036 0.007,-0.065 0.007,-0.099l-0.018,0z"/>
  <path id="svg_8" fill="#FFFFFF" d="m49.982,29.003c-0.094,-5.522 -4.574,-10.442 -10.107,-10.442c-3.2,0 -6.019,1.674 -7.875,4.131c-1.856,-2.457 -4.676,-4.131 -7.875,-4.131c-5.533,0 -10.012,4.921 -10.107,10.442l-0.018,0c0,0.034 0.007,0.065 0.007,0.099c0,0.025 -0.007,0.049 -0.007,0.076c0,0.155 0.038,0.272 0.045,0.421c0.495,14.071 17.813,19.84 17.813,19.84s17.572,-5.762 18.092,-19.818c0.009,-0.157 0.05,-0.281 0.05,-0.443c0,-0.027 -0.007,-0.052 -0.007,-0.076c0,-0.036 0.007,-0.065 0.007,-0.099l-0.018,0z"/>
 </g>
</svg>