<?xml version="1.0" encoding="utf-8"?>
<!-- Generator: Adobe Illustrator 16.0.0, SVG Export Plug-In . SVG Version: 6.00 Build 0)  -->
<!DOCTYPE svg PUBLIC "-//W3C//DTD SVG 1.1//EN" "http://www.w3.org/Graphics/SVG/1.1/DTD/svg11.dtd">
<svg version="1.1" id="Layer_1" xmlns="http://www.w3.org/2000/svg" xmlns:xlink="http://www.w3.org/1999/xlink" x="0px" y="0px"
	 width="512px" height="512px" viewBox="0 0 512 512" enable-background="new 0 0 512 512" xml:space="preserve">
<g id="linkedin_2_">
	<path d="M120.836,164.562H18.898c-5.016,0-9.094,4.094-9.094,9.109v329.234c0,5,4.078,9.094,9.094,9.094h101.938
		c5.031,0,9.094-4.094,9.094-9.094V173.672C129.93,168.656,125.867,164.562,120.836,164.562z M111.742,493.781H28.008V182.812
		h83.734V493.781z"/>
	<path d="M69.367,0C31.117,0,0.008,31.328,0.008,69.844c0,38.531,31.109,69.875,69.359,69.875c38.281,0,69.406-31.344,69.406-69.875
		C138.773,31.328,107.648,0,69.367,0z M69.367,121.469c-28.203,0-51.156-23.156-51.156-51.625s22.953-51.625,51.156-51.625
		c28.234,0,51.188,23.156,51.188,51.625S97.602,121.469,69.367,121.469z"/>
	<path d="M502.586,233.781c-6.109-17.297-15.172-32.172-26.938-44.188c-22.438-22.938-54.469-35.062-92.594-35.062
		c-30.281,0-58.219,9.891-80.766,28.594l-9.391,7.781v-16.719c-0.188-5.781-4.188-9.625-9.094-9.625h-97.781
		c-5.016,0-9.094,4.094-9.094,9.109v329.234c0,5,4.078,9.094,9.094,9.094h97.75c5.031,0,9.109-4.094,9.125-9.125V330.094
		c0-20.844,4.75-37.625,13.703-48.5c8.859-10.766,22.094-16.219,39.328-16.219c11.469,0,46.375,0,46.375,64.719v172.812
		c0.031,5,4.125,9.094,9.141,9.094h101.438c5.016,0,9.109-4.094,9.109-9.094V294.469C511.992,271.906,508.82,251.5,502.586,233.781z
		 M493.773,493.781h-83.25V330.094c0-25.875-5.188-46.094-15.453-60.094c-10.984-14.969-27.953-22.875-49.141-22.875
		c-22.594,0-41.062,7.922-53.391,22.906c-11.828,14.375-17.844,34.578-17.844,60.062v163.688h-79.562V182.812h79.562v35.203
		c0.016,5.016,4.109,9.109,9.109,9.109c3.375,0,6.438-1.844,8.031-4.797c1.156-2.094,28.25-49.547,91.219-49.547
		c33.125,0,60.656,10.219,79.594,29.562c20.656,21.062,31.125,52.078,31.125,92.125V493.781z"/>
</g>
</svg>
