<?xml version="1.0" encoding="utf-8"?>
<!-- Generator: Adobe Illustrator 16.0.0, SVG Export Plug-In . SVG Version: 6.00 Build 0)  -->
<!DOCTYPE svg PUBLIC "-//W3C//DTD SVG 1.1//EN" "http://www.w3.org/Graphics/SVG/1.1/DTD/svg11.dtd">
<svg version="1.1" id="Layer_1" xmlns="http://www.w3.org/2000/svg" xmlns:xlink="http://www.w3.org/1999/xlink" x="0px" y="0px"
	 width="512px" height="512px" viewBox="0 0 512 512" enable-background="new 0 0 512 512" xml:space="preserve">
<path id="twitter_2_" d="M452.625,439.766c0-39.828-32.391-72.234-72.203-72.234H257.828c-19.484,0-32.297-9.906-38.203-15.812
	c-5.891-5.906-15.812-18.688-15.812-38.188v-42.875h176.594c39.828,0,72.219-32.406,72.219-72.219s-32.391-72.219-72.219-72.219
	H203.812V72.203C203.812,32.406,171.422,0,131.594,0C91.781,0,59.375,32.406,59.375,72.203v241.328
	c0,26.797,5.25,52.781,15.609,77.219c9.984,23.625,24.281,44.875,42.516,63.125c18.25,18.219,39.469,32.5,63.078,42.5
	C205.109,506.75,231.094,512,257.828,512h122.578C420.234,511.969,452.625,479.562,452.625,439.766z M380.422,493.75H257.828
	c-48.141,0-93.406-18.719-127.453-52.781c-34.031-34-52.781-79.25-52.781-127.438V72.203c0-29.766,24.234-53.984,54-53.984
	c29.734,0,53.969,24.156,54.016,53.875v72.344h194.797c29.781,0,54.016,24.219,54.016,54s-24.234,54.016-54.016,54.016H185.609
	v61.078c0,26.016,13.25,43.172,21.141,51.078c7.906,7.891,25.031,21.141,51.078,21.141h122.594c29.766,0.031,54,24.25,54,54.016
	C434.422,469.547,410.188,493.75,380.422,493.75z"/>
</svg>
