<?xml version="1.0" encoding="utf-8"?>
<!-- Generator: Adobe Illustrator 15.0.0, SVG Export Plug-In . SVG Version: 6.00 Build 0)  -->
<!DOCTYPE svg PUBLIC "-//W3C//DTD SVG 1.1//EN" "http://www.w3.org/Graphics/SVG/1.1/DTD/svg11.dtd">
<svg version="1.1" id="Слой_1" xmlns="http://www.w3.org/2000/svg" xmlns:xlink="http://www.w3.org/1999/xlink" x="0px" y="0px"
	 width="512px" height="512px" viewBox="0 0 512 512" enable-background="new 0 0 512 512" xml:space="preserve">
<path id="user_1_1_" d="M511.987,511.99v-53.719c0-26.094-16.874-48.248-40.295-56.092l0,0
	c-1.844-0.625-121.729-31.248-138.884-65.311c-7.827-15.563-0.109-35.498,7.703-49.248c3.576-4.813,7.075-9.906,10.437-15.25
	c0-0.031,0-0.031,0-0.031l0,0c20.313-32.499,35.813-75.247,37.389-128.088C390.712,64.756,329.199,0.195,256.173,0.008l0,0
	c-0.063,0-0.109,0-0.172,0c-0.048,0-0.109,0-0.173,0l0,0c-73.012,0.187-134.524,64.748-132.134,144.245
	c1.578,52.842,17.063,95.59,37.373,128.088l0,0c0,0,0.017,0,0.017,0.031c3.344,5.344,6.844,10.438,10.421,15.25
	c7.813,13.75,15.53,33.686,7.703,49.248c-17.141,34.061-137.041,64.686-138.885,65.311l0,0
	c-23.42,7.846-40.311,29.998-40.311,56.094v53.717L511.987,511.99L511.987,511.99z"/>
</svg>
