<?xml version="1.0" encoding="utf-8"?>
<!-- Generator: Adobe Illustrator 15.0.0, SVG Export Plug-In . SVG Version: 6.00 Build 0)  -->
<!DOCTYPE svg PUBLIC "-//W3C//DTD SVG 1.1//EN" "http://www.w3.org/Graphics/SVG/1.1/DTD/svg11.dtd">
<svg version="1.1" id="Слой_1" xmlns="http://www.w3.org/2000/svg" xmlns:xlink="http://www.w3.org/1999/xlink" x="0px" y="0px"
	 width="512px" height="512px" viewBox="0 0 512 512" enable-background="new 0 0 512 512" xml:space="preserve">
<g id="You_tube_2_">
	<polygon points="154.41,194.722 184.315,194.722 184.315,115.755 219.11,0.009 188.736,0.009 169.566,77.851 148.942,0.009 
		118.818,0.009 154.41,115.755 	"/>
	<path d="M335.933,196.814c8.029,0,19.187-4.219,30.687-17.937v15.843h26.563V51.102h-26.563v108.996
		c-3.232,4.094-10.438,10.781-15.607,10.781c-5.671,0-7.077-3.906-7.077-9.688V51.102h-26.546V171.16
		C317.387,185.315,321.699,196.814,335.933,196.814z"/>
	<path d="M217.751,158.911c0,25.312,13.155,38.499,38.92,38.499c21.356,0,38.17-14.375,38.17-38.499V88.506
		c0-22.468-16.655-38.592-38.17-38.592c-23.392,0-38.92,15.531-38.92,38.592V158.911L217.751,158.911z M245.093,90.881
		c0-7.875,3.593-13.718,11.046-13.718c8.141,0,11.64,5.687,11.64,13.718v66.81c0,7.812-3.968,13.562-11.107,13.562
		c-7.345,0-11.578-6-11.578-13.562L245.093,90.881L245.093,90.881z"/>
	<path d="M393.961,353.402c-9.373,0-11.296,6.625-11.296,16v13.875h22.345v-13.875C404.992,360.186,403.055,353.402,393.961,353.402
		z"/>
	<path d="M295.637,354.246c-1.75,0.906-3.517,2.281-5.219,4.189v85.215c2.063,2.25,4.047,3.844,5.983,4.813
		c4.125,2.094,10.14,2.281,12.938-1.406c1.469-1.938,2.201-5.029,2.201-9.438v-70.623c0-4.592-0.904-8.123-2.701-10.498
		C305.777,352.436,300.06,351.965,295.637,354.246z"/>
	<path d="M432.631,235.688H79.367c-21.687,0-39.264,17.656-39.264,39.468v197.367c0,21.813,17.578,39.467,39.264,39.467h353.265
		c21.688,0,39.265-17.654,39.265-39.467V275.156C471.895,253.344,454.317,235.688,432.631,235.688z M138.911,469.68h-28.483V311.186
		H80.977V284.25h87.402v26.936h-29.467V469.68z M240.218,469.68h-25.296v-15.094c-4.656,5.594-9.515,9.814-14.546,12.719
		c-13.64,7.844-32.342,7.689-32.342-20.061V332.936h25.28v104.811c0,5.529,1.328,9.25,6.734,9.25c4.937,0,11.796-6.375,14.874-10.25
		V332.936h25.296V469.68L240.218,469.68z M337.558,441.338c0,16.967-6.297,30.092-23.124,30.092c-9.266,0-16.969-3.404-24.016-12.25
		v10.5H264.89V284.25h25.528v59.717c5.703-7,13.469-12.781,22.498-12.781c18.517,0,24.642,15.75,24.642,34.279V441.338
		L337.558,441.338z M431.037,404.494h-48.372v25.813c0,10.25,0.875,19.125,11.046,19.125c10.673,0,11.281-7.219,11.281-19.125v-9.5
		h26.045v10.281c0,26.342-11.265,42.279-37.902,42.279c-24.155,0-36.498-17.656-36.498-42.279v-61.404
		c0-23.748,15.606-40.217,38.42-40.217c24.265,0,35.98,15.5,35.98,40.217l0,0V404.494L431.037,404.494z"/>
</g>
</svg>
